<svg id="Layer_1" xmlns="http://www.w3.org/2000/svg" width="310" height="380" viewBox="0 0 310 380"><style>.st0{fill:#C8C7CC;} .st1{fill:#458ABE;} .st2{fill:#FFFFFF;} .st3{opacity:0.15;} .st4{fill:#709DCA;}</style><path class="st0" d="M229 31.3l-202.1 2C14 1.1 3.6 11.6 3.6 24.3v332.4C3.6 369.5 14 380 26.7 380h260.2c12.7 0 23.1-10.5 23.1-23.2V89.2l-81-57.9z"/><path class="st1" d="M306.9 143.8V85.5L221.4 0H23.6C10.9 0 .5 10.4.5 23.1v120.7h306.4z"/><path class="st2" d="M.5 143.8v209.6c0 12.7 10.4 23.1 23.1 23.1h260.2c12.7 0 23.1-10.4 23.1-23.1V143.8H.5z"/><path class="st0" d="M283.8 377H23.6C10.6 377 0 366.4 0 353.4V143.3h307.5v210.1c0 13-10.6 23.6-23.7 23.6zM1 144.3v209.1C1 365.9 11.2 376 23.6 376h260.2c12.5 0 22.6-10.1 22.6-22.6V144.3H1z"/><path d="M221.5 0l-4.4 81.4c0 8.3 6.8 15.1 15.1 15.1l74.6-11v-.1L221.5 0z" class="st3"/><path class="st4" d="M221.5 0l-.1 70.3c0 8.3 6.8 15.1 15.1 15.1h70.3v-.1L221.5 0z"/><path class="st2" d="M42.9 91.9v-38h12.3c4.8 0 8.7 1.5 11.8 4.5 3 3 4.5 6.9 4.5 11.6v5.8c0 4.7-1.5 8.6-4.5 11.6s-6.9 4.5-11.8 4.5H42.9zM49.3 59v27.8h5.8c3.1 0 5.6-1 7.4-3.1 1.8-2.1 2.7-4.7 2.7-7.9V70c0-3.2-.9-5.8-2.7-7.9-1.8-2.1-4.3-3.1-7.4-3.1h-5.8zM107.1 76.3c0 4.6-1.5 8.5-4.4 11.5-2.9 3.1-6.7 4.6-11.3 4.6-4.6 0-8.3-1.5-11.1-4.6-2.8-3.1-4.3-6.9-4.3-11.5v-6.8c0-4.6 1.4-8.5 4.3-11.5 2.8-3.1 6.5-4.6 11.1-4.6s8.4 1.5 11.3 4.6c2.9 3.1 4.4 6.9 4.4 11.5v6.8zm-6.3-6.8c0-3.2-.8-5.8-2.5-7.8s-4-3.1-6.9-3.1c-2.8 0-5 1-6.6 3.1-1.6 2-2.4 4.6-2.4 7.8v6.9c0 3.2.8 5.8 2.4 7.9 1.6 2 3.8 3.1 6.6 3.1 2.9 0 5.2-1 6.9-3.1 1.7-2 2.5-4.7 2.5-7.9v-6.9zM141.2 79.3l.1.2c.1 3.8-1.2 7-3.7 9.4-2.6 2.4-6 3.6-10.4 3.6s-8-1.5-10.8-4.5c-2.8-3-4.2-6.8-4.2-11.4v-7.2c0-4.6 1.4-8.4 4.1-11.4 2.7-3 6.3-4.5 10.7-4.5 4.5 0 8 1.2 10.6 3.5 2.6 2.4 3.8 5.5 3.8 9.5l-.1.2h-6.1c0-2.6-.7-4.5-2.1-6-1.4-1.4-3.4-2.1-6.1-2.1-2.6 0-4.6 1-6.2 3.1-1.5 2.1-2.3 4.6-2.3 7.7v7.3c0 3.1.8 5.7 2.3 7.8 1.6 2.1 3.7 3.1 6.3 3.1 2.6 0 4.6-.7 6-2.1 1.4-1.4 2-3.4 2-6h6.1z"/><g><path class="st2" d="M.5 142.9h306.4v1.9H.5z"/></g><g><path class="st0" d="M174.1 236.5V188h-40.7v48.5h-37l57.3 68.5 57.4-68.5zM97.1 330h113.3v13.5H97.1z"/></g></svg>